<svg width="344" height="13" viewBox="0 0 344 13" fill="none" xmlns="http://www.w3.org/2000/svg">
<path d="M5.306 9.734C4.41 9.734 3.62133 9.54267 2.94 9.16C2.25867 8.77733 1.72667 8.236 1.344 7.536C0.970667 6.836 0.784 6.02867 0.784 5.114C0.784 4.19933 0.970667 3.392 1.344 2.692C1.72667 1.992 2.25867 1.45067 2.94 1.068C3.62133 0.685333 4.41 0.494 5.306 0.494C6.202 0.494 6.99067 0.685333 7.672 1.068C8.35333 1.45067 8.88067 1.992 9.254 2.692C9.63667 3.392 9.828 4.19933 9.828 5.114C9.828 6.02867 9.63667 6.836 9.254 7.536C8.88067 8.236 8.35333 8.77733 7.672 9.16C6.99067 9.54267 6.202 9.734 5.306 9.734ZM5.306 8.95C6.034 8.95 6.67333 8.79133 7.224 8.474C7.784 8.15667 8.218 7.70867 8.526 7.13C8.834 6.542 8.988 5.87 8.988 5.114C8.988 4.358 8.834 3.69067 8.526 3.112C8.218 2.524 7.784 2.07133 7.224 1.754C6.67333 1.43667 6.034 1.278 5.306 1.278C4.578 1.278 3.934 1.43667 3.374 1.754C2.82333 2.07133 2.394 2.524 2.086 3.112C1.778 3.69067 1.624 4.358 1.624 5.114C1.624 5.87 1.778 6.542 2.086 7.13C2.394 7.70867 2.82333 8.15667 3.374 8.474C3.934 8.79133 4.578 8.95 5.306 8.95ZM4.9 7.858C4.37733 7.858 3.95267 7.68067 3.626 7.326C3.30867 6.962 3.15 6.486 3.15 5.898V4.302C3.15 3.72333 3.31333 3.25667 3.64 2.902C3.96667 2.538 4.396 2.356 4.928 2.356H5.74C6.244 2.356 6.65 2.51467 6.958 2.832C7.266 3.14933 7.42 3.56467 7.42 4.078H6.58C6.58 3.78867 6.50067 3.55533 6.342 3.378C6.19267 3.20067 5.992 3.112 5.74 3.112H4.928C4.65733 3.112 4.438 3.224 4.27 3.448C4.102 3.66267 4.018 3.94733 4.018 4.302V5.898C4.018 6.262 4.09733 6.556 4.256 6.78C4.41467 6.99467 4.62933 7.102 4.9 7.102H5.726C5.98733 7.102 6.19733 7.004 6.356 6.808C6.51467 6.60267 6.594 6.33667 6.594 6.01H7.448C7.448 6.56067 7.28933 7.00867 6.972 7.354C6.65467 7.69 6.23933 7.858 5.726 7.858H4.9ZM15.3661 0.199999H16.3601L19.8601 6.71L23.2621 0.199999H24.2561V10H23.2341V2.132L20.4061 7.508C20.3034 7.69467 20.2148 7.82533 20.1401 7.9C20.0654 7.96533 19.9814 7.998 19.8881 7.998H19.5801L16.3881 2.132V10H15.3661V0.199999ZM28.455 10.112C27.7737 10.112 27.2277 9.93467 26.817 9.58C26.4157 9.22533 26.215 8.74933 26.215 8.152V7.704C26.215 7.116 26.425 6.64467 26.845 6.29C27.265 5.93533 27.8203 5.758 28.511 5.758H29.407C29.715 5.758 30.0323 5.80467 30.359 5.898C30.6857 5.99133 30.9657 6.11733 31.199 6.276V5.114C31.199 4.722 31.0777 4.40467 30.835 4.162C30.5923 3.91 30.2703 3.784 29.869 3.784H28.749C28.3477 3.784 28.0257 3.87733 27.783 4.064C27.5403 4.25067 27.419 4.498 27.419 4.806H26.411C26.411 4.23667 26.6257 3.77933 27.055 3.434C27.4843 3.07933 28.049 2.902 28.749 2.902H29.869C30.5597 2.902 31.115 3.10733 31.535 3.518C31.9643 3.91933 32.179 4.45133 32.179 5.114V10H31.227V9.02C31.0123 9.356 30.7277 9.622 30.373 9.818C30.0277 10.014 29.6683 10.112 29.295 10.112H28.455ZM29.323 9.23C29.7617 9.23 30.1537 9.09467 30.499 8.824C30.8443 8.55333 31.0777 8.194 31.199 7.746V7.228C31.0123 7.05067 30.751 6.91067 30.415 6.808C30.0883 6.696 29.7523 6.64 29.407 6.64H28.511C28.1283 6.64 27.8157 6.738 27.573 6.934C27.3397 7.13 27.223 7.38667 27.223 7.704V8.152C27.223 8.47867 27.335 8.74 27.559 8.936C27.783 9.132 28.0817 9.23 28.455 9.23H29.323ZM36.3883 10.112C35.9123 10.112 35.4876 10 35.1143 9.776C34.741 9.552 34.4516 9.23933 34.2463 8.838C34.041 8.43667 33.9383 7.97 33.9383 7.438V5.758C33.9383 5.198 34.0456 4.70333 34.2603 4.274C34.475 3.83533 34.7783 3.49933 35.1703 3.266C35.5623 3.02333 36.0103 2.902 36.5143 2.902H37.5503C37.8676 2.902 38.171 2.97667 38.4603 3.126C38.759 3.27533 38.997 3.48067 39.1743 3.742V0.199999H40.1823V10H39.2023V8.964C38.9876 9.30933 38.7076 9.58933 38.3623 9.804C38.017 10.0093 37.681 10.112 37.3543 10.112H36.3883ZM37.3263 9.216C37.625 9.216 37.9143 9.12267 38.1943 8.936C38.4743 8.74 38.703 8.488 38.8803 8.18C39.0576 7.872 39.1556 7.55467 39.1743 7.228V5.464C39.109 4.96933 38.9223 4.568 38.6143 4.26C38.3156 3.952 37.9516 3.798 37.5223 3.798H36.5423C36.0663 3.798 35.679 3.98 35.3803 4.344C35.091 4.69867 34.9463 5.17 34.9463 5.758V7.438C34.9463 7.96067 35.0816 8.39 35.3523 8.726C35.6323 9.05267 35.987 9.216 36.4163 9.216H37.3263ZM44.636 10.112C43.852 10.112 43.222 9.88333 42.746 9.426C42.27 8.95933 42.032 8.34333 42.032 7.578V5.576C42.032 4.77333 42.27 4.12933 42.746 3.644C43.222 3.14933 43.852 2.902 44.636 2.902H45.784C46.5307 2.902 47.1327 3.14 47.59 3.616C48.0474 4.092 48.276 4.722 48.276 5.506V6.738H43.04V7.578C43.04 8.06333 43.1847 8.46 43.474 8.768C43.7727 9.06667 44.16 9.216 44.636 9.216H45.7C46.1667 9.216 46.5447 9.09 46.834 8.838C47.1234 8.57667 47.268 8.23133 47.268 7.802H48.248C48.248 8.49267 48.0147 9.05267 47.548 9.482C47.0814 9.902 46.4654 10.112 45.7 10.112H44.636ZM47.268 5.87V5.506C47.268 4.99267 47.1327 4.582 46.862 4.274C46.5914 3.95667 46.232 3.798 45.784 3.798H44.636C44.16 3.798 43.7727 3.96133 43.474 4.288C43.1847 4.61467 43.04 5.044 43.04 5.576V5.87H47.268ZM56.4314 10.112C56.1234 10.112 55.7967 10.0187 55.4514 9.832C55.106 9.636 54.84 9.39333 54.6534 9.104V10H53.6734V0.199999H54.6814V3.84C54.8867 3.55067 55.148 3.322 55.4654 3.154C55.792 2.986 56.128 2.902 56.4734 2.902H57.4674C57.9434 2.902 58.3634 3.014 58.7274 3.238C59.1007 3.45267 59.39 3.76067 59.5954 4.162C59.81 4.554 59.9174 5.00667 59.9174 5.52V7.326C59.9174 7.87667 59.81 8.362 59.5954 8.782C59.39 9.202 59.096 9.52867 58.7134 9.762C58.34 9.99533 57.906 10.112 57.4114 10.112H56.4314ZM57.3834 9.216C57.8314 9.216 58.1954 9.04333 58.4754 8.698C58.7647 8.34333 58.9094 7.886 58.9094 7.326V5.52C58.9094 5.00667 58.7694 4.59133 58.4894 4.274C58.2187 3.95667 57.8687 3.798 57.4394 3.798H56.5014C56.016 3.798 55.6007 3.97533 55.2554 4.33C54.91 4.68467 54.7187 5.15133 54.6814 5.73V7.438C54.7 7.76467 54.7934 8.06333 54.9614 8.334C55.1294 8.60467 55.344 8.81933 55.6054 8.978C55.8667 9.13667 56.142 9.216 56.4314 9.216H57.3834ZM64.0211 12.842C63.4051 12.842 62.8965 12.674 62.4951 12.338C62.0938 12.0113 61.8698 11.5773 61.8231 11.036H62.8311C62.8685 11.316 62.9945 11.54 63.2091 11.708C63.4331 11.8853 63.7038 11.974 64.0211 11.974H65.1131C65.5985 11.974 65.9718 11.8107 66.2331 11.484C66.5038 11.1667 66.6391 10.7187 66.6391 10.14V8.852C66.4151 9.188 66.1305 9.46333 65.7851 9.678C65.4491 9.89267 65.1131 10 64.7771 10H63.8811C63.2278 10 62.6958 9.78067 62.2851 9.342C61.8838 8.90333 61.6831 8.32933 61.6831 7.62V3.014H62.6911V7.648C62.6911 8.08667 62.7985 8.44133 63.0131 8.712C63.2371 8.97333 63.5265 9.104 63.8811 9.104H64.7491C65.1785 9.104 65.5751 8.93133 65.9391 8.586C66.3031 8.24067 66.5365 7.80667 66.6391 7.284V3.014H67.6471V10.14C67.6471 10.9893 67.4231 11.652 66.9751 12.128C66.5271 12.604 65.9065 12.842 65.1131 12.842H64.0211ZM73.4716 0.199999H78.2176C78.9456 0.199999 79.5289 0.405333 79.9676 0.816C80.4156 1.22667 80.6396 1.768 80.6396 2.44V3.882C80.6396 4.60067 80.4016 5.184 79.9256 5.632C79.4496 6.07067 78.8242 6.29 78.0496 6.29H74.5076V10H73.4716V0.199999ZM78.0216 5.366C78.4976 5.366 78.8802 5.23067 79.1696 4.96C79.4589 4.68 79.6036 4.31133 79.6036 3.854V2.412C79.6036 2.02933 79.4729 1.72133 79.2116 1.488C78.9596 1.24533 78.6189 1.124 78.1896 1.124H74.5076V5.366H78.0216ZM84.3939 10.112C83.6099 10.112 82.9799 9.86933 82.5039 9.384C82.0279 8.89867 81.7899 8.25933 81.7899 7.466V5.548C81.7899 4.75467 82.0279 4.11533 82.5039 3.63C82.9892 3.14467 83.6285 2.902 84.4219 2.902H85.5699C86.3632 2.902 86.9979 3.14467 87.4739 3.63C87.9592 4.11533 88.2019 4.75467 88.2019 5.548V7.466C88.2019 8.25933 87.9592 8.89867 87.4739 9.384C86.9885 9.86933 86.3445 10.112 85.5419 10.112H84.3939ZM85.5419 9.216C86.0459 9.216 86.4472 9.05733 86.7459 8.74C87.0445 8.41333 87.1939 7.98867 87.1939 7.466V5.548C87.1939 5.02533 87.0445 4.60533 86.7459 4.288C86.4472 3.96133 86.0552 3.798 85.5699 3.798H84.4219C83.9365 3.798 83.5445 3.96133 83.2459 4.288C82.9472 4.60533 82.7979 5.02533 82.7979 5.548V7.466C82.7979 7.998 82.9425 8.42267 83.2319 8.74C83.5212 9.05733 83.9085 9.216 84.3939 9.216H85.5419ZM90.0542 3.014H91.0342V4.092C91.2209 3.76533 91.5009 3.49933 91.8742 3.294C92.2569 3.08867 92.6536 2.986 93.0642 2.986H93.6802V3.896H93.0642C92.4669 3.896 91.9816 4.08733 91.6082 4.47C91.2442 4.84333 91.0622 5.34267 91.0622 5.968V10H90.0542V3.014ZM97.7748 10C97.0375 10 96.5055 9.84133 96.1788 9.524C95.8615 9.20667 95.7028 8.684 95.7028 7.956V3.91H94.4708V3.014H95.7028V0.899999H96.7108V3.014H98.5308V3.91H96.7108V7.956C96.7108 8.36667 96.7901 8.66067 96.9488 8.838C97.1168 9.01533 97.3921 9.104 97.7748 9.104H98.5308V10H97.7748ZM101.077 3.91H99.8725V3.014H101.077V2.468C101.077 1.70267 101.273 1.124 101.665 0.731999C102.057 0.339999 102.631 0.143999 103.387 0.143999H103.919V1.012H103.387C102.939 1.012 102.607 1.13333 102.393 1.376C102.187 1.60933 102.085 1.97333 102.085 2.468V3.014H103.765V3.91H102.085V10H101.077V3.91ZM107.363 10.112C106.579 10.112 105.949 9.86933 105.473 9.384C104.997 8.89867 104.759 8.25933 104.759 7.466V5.548C104.759 4.75467 104.997 4.11533 105.473 3.63C105.958 3.14467 106.597 2.902 107.391 2.902H108.539C109.332 2.902 109.967 3.14467 110.443 3.63C110.928 4.11533 111.171 4.75467 111.171 5.548V7.466C111.171 8.25933 110.928 8.89867 110.443 9.384C109.957 9.86933 109.313 10.112 108.511 10.112H107.363ZM108.511 9.216C109.015 9.216 109.416 9.05733 109.715 8.74C110.013 8.41333 110.163 7.98867 110.163 7.466V5.548C110.163 5.02533 110.013 4.60533 109.715 4.288C109.416 3.96133 109.024 3.798 108.539 3.798H107.391C106.905 3.798 106.513 3.96133 106.215 4.288C105.916 4.60533 105.767 5.02533 105.767 5.548V7.466C105.767 7.998 105.911 8.42267 106.201 8.74C106.49 9.05733 106.877 9.216 107.363 9.216H108.511ZM114.955 10C114.264 10 113.77 9.85533 113.471 9.566C113.172 9.26733 113.023 8.77733 113.023 8.096V0.199999H114.031V8.096C114.031 8.45067 114.101 8.70733 114.241 8.866C114.39 9.02467 114.628 9.104 114.955 9.104H115.431V10H114.955ZM117.525 1.964C117.301 1.964 117.119 1.894 116.979 1.754C116.839 1.614 116.769 1.432 116.769 1.208C116.769 0.984 116.839 0.802 116.979 0.661999C117.119 0.521999 117.301 0.451999 117.525 0.451999C117.749 0.451999 117.931 0.521999 118.071 0.661999C118.211 0.802 118.281 0.984 118.281 1.208C118.281 1.432 118.211 1.614 118.071 1.754C117.931 1.894 117.749 1.964 117.525 1.964ZM117.021 3.014H118.029V10H117.021V3.014ZM122.73 10.112C121.946 10.112 121.316 9.86933 120.84 9.384C120.364 8.89867 120.126 8.25933 120.126 7.466V5.548C120.126 4.75467 120.364 4.11533 120.84 3.63C121.325 3.14467 121.964 2.902 122.758 2.902H123.906C124.699 2.902 125.334 3.14467 125.81 3.63C126.295 4.11533 126.538 4.75467 126.538 5.548V7.466C126.538 8.25933 126.295 8.89867 125.81 9.384C125.324 9.86933 124.68 10.112 123.878 10.112H122.73ZM123.878 9.216C124.382 9.216 124.783 9.05733 125.082 8.74C125.38 8.41333 125.53 7.98867 125.53 7.466V5.548C125.53 5.02533 125.38 4.60533 125.082 4.288C124.783 3.96133 124.391 3.798 123.906 3.798H122.758C122.272 3.798 121.88 3.96133 121.582 4.288C121.283 4.60533 121.134 5.02533 121.134 5.548V7.466C121.134 7.998 121.278 8.42267 121.568 8.74C121.857 9.05733 122.244 9.216 122.73 9.216H123.878ZM134.491 1.096H131.383V0.199999H138.635V1.096H135.527V10H134.491V1.096ZM140.818 10.112C140.034 10.112 139.404 9.88333 138.928 9.426C138.452 8.95933 138.214 8.34333 138.214 7.578V5.576C138.214 4.77333 138.452 4.12933 138.928 3.644C139.404 3.14933 140.034 2.902 140.818 2.902H141.966C142.712 2.902 143.314 3.14 143.772 3.616C144.229 4.092 144.458 4.722 144.458 5.506V6.738H139.222V7.578C139.222 8.06333 139.366 8.46 139.656 8.768C139.954 9.06667 140.342 9.216 140.818 9.216H141.882C142.348 9.216 142.726 9.09 143.016 8.838C143.305 8.57667 143.45 8.23133 143.45 7.802H144.43C144.43 8.49267 144.196 9.05267 143.73 9.482C143.263 9.902 142.647 10.112 141.882 10.112H140.818ZM143.45 5.87V5.506C143.45 4.99267 143.314 4.582 143.044 4.274C142.773 3.95667 142.414 3.798 141.966 3.798H140.818C140.342 3.798 139.954 3.96133 139.656 4.288C139.366 4.61467 139.222 5.044 139.222 5.576V5.87H143.45ZM153.876 2.902C154.492 2.902 154.978 3.10267 155.332 3.504C155.696 3.896 155.878 4.442 155.878 5.142V10H154.87V5.114C154.87 4.70333 154.777 4.38133 154.59 4.148C154.404 3.91467 154.156 3.798 153.848 3.798H153.05C152.649 3.798 152.318 3.93333 152.056 4.204C151.795 4.47467 151.627 4.85733 151.552 5.352V10H150.544V5.198C150.544 4.75933 150.456 4.41867 150.278 4.176C150.11 3.924 149.877 3.798 149.578 3.798H148.78C148.398 3.798 148.062 3.966 147.772 4.302C147.483 4.638 147.301 5.07667 147.226 5.618V10H146.218V3.014H147.198V4.022C147.385 3.66733 147.618 3.392 147.898 3.196C148.178 3 148.472 2.902 148.78 2.902H149.606C149.998 2.902 150.334 3 150.614 3.196C150.904 3.38267 151.123 3.658 151.272 4.022C151.487 3.64867 151.744 3.36867 152.042 3.182C152.341 2.99533 152.668 2.902 153.022 2.902H153.876ZM157.921 3.014H158.901V3.966C159.097 3.64867 159.354 3.392 159.671 3.196C159.998 3 160.325 2.902 160.651 2.902H161.659C162.406 2.902 163.008 3.14 163.465 3.616C163.932 4.092 164.165 4.722 164.165 5.506V7.228C164.165 8.096 163.927 8.796 163.451 9.328C162.985 9.85067 162.364 10.112 161.589 10.112H160.581C160.292 10.112 159.989 10.0327 159.671 9.874C159.354 9.706 159.107 9.49133 158.929 9.23V12.786H157.921V3.014ZM161.561 9.216C162.047 9.216 162.434 9.034 162.723 8.67C163.013 8.306 163.157 7.82533 163.157 7.228V5.506C163.157 4.99267 163.017 4.582 162.737 4.274C162.457 3.95667 162.089 3.798 161.631 3.798H160.651C160.259 3.798 159.905 3.952 159.587 4.26C159.27 4.55867 159.051 4.946 158.929 5.422V7.522C158.995 8.01667 159.186 8.42267 159.503 8.74C159.821 9.05733 160.199 9.216 160.637 9.216H161.561ZM167.947 10C167.257 10 166.762 9.85533 166.463 9.566C166.165 9.26733 166.015 8.77733 166.015 8.096V0.199999H167.023V8.096C167.023 8.45067 167.093 8.70733 167.233 8.866C167.383 9.02467 167.621 9.104 167.947 9.104H168.423V10H167.947ZM171.777 10.112C171.096 10.112 170.55 9.93467 170.139 9.58C169.738 9.22533 169.537 8.74933 169.537 8.152V7.704C169.537 7.116 169.747 6.64467 170.167 6.29C170.587 5.93533 171.143 5.758 171.833 5.758H172.729C173.037 5.758 173.355 5.80467 173.681 5.898C174.008 5.99133 174.288 6.11733 174.521 6.276V5.114C174.521 4.722 174.4 4.40467 174.157 4.162C173.915 3.91 173.593 3.784 173.191 3.784H172.071C171.67 3.784 171.348 3.87733 171.105 4.064C170.863 4.25067 170.741 4.498 170.741 4.806H169.733C169.733 4.23667 169.948 3.77933 170.377 3.434C170.807 3.07933 171.371 2.902 172.071 2.902H173.191C173.882 2.902 174.437 3.10733 174.857 3.518C175.287 3.91933 175.501 4.45133 175.501 5.114V10H174.549V9.02C174.335 9.356 174.05 9.622 173.695 9.818C173.35 10.014 172.991 10.112 172.617 10.112H171.777ZM172.645 9.23C173.084 9.23 173.476 9.09467 173.821 8.824C174.167 8.55333 174.4 8.194 174.521 7.746V7.228C174.335 7.05067 174.073 6.91067 173.737 6.808C173.411 6.696 173.075 6.64 172.729 6.64H171.833C171.451 6.64 171.138 6.738 170.895 6.934C170.662 7.13 170.545 7.38667 170.545 7.704V8.152C170.545 8.47867 170.657 8.74 170.881 8.936C171.105 9.132 171.404 9.23 171.777 9.23H172.645ZM180.285 10C179.547 10 179.015 9.84133 178.689 9.524C178.371 9.20667 178.213 8.684 178.213 7.956V3.91H176.981V3.014H178.213V0.899999H179.221V3.014H181.041V3.91H179.221V7.956C179.221 8.36667 179.3 8.66067 179.459 8.838C179.627 9.01533 179.902 9.104 180.285 9.104H181.041V10H180.285ZM184.992 10.112C184.208 10.112 183.578 9.88333 183.102 9.426C182.626 8.95933 182.388 8.34333 182.388 7.578V5.576C182.388 4.77333 182.626 4.12933 183.102 3.644C183.578 3.14933 184.208 2.902 184.992 2.902H186.14C186.886 2.902 187.488 3.14 187.946 3.616C188.403 4.092 188.632 4.722 188.632 5.506V6.738H183.396V7.578C183.396 8.06333 183.54 8.46 183.83 8.768C184.128 9.06667 184.516 9.216 184.992 9.216H186.056C186.522 9.216 186.9 9.09 187.19 8.838C187.479 8.57667 187.624 8.23133 187.624 7.802H188.604C188.604 8.49267 188.37 9.05267 187.904 9.482C187.437 9.902 186.821 10.112 186.056 10.112H184.992ZM187.624 5.87V5.506C187.624 4.99267 187.488 4.582 187.218 4.274C186.947 3.95667 186.588 3.798 186.14 3.798H184.992C184.516 3.798 184.128 3.96133 183.83 4.288C183.54 4.61467 183.396 5.044 183.396 5.576V5.87H187.624ZM200.511 10L199.685 8.992C199.349 9.356 198.962 9.636 198.523 9.832C198.094 10.0187 197.627 10.112 197.123 10.112H196.395C195.602 10.112 194.962 9.902 194.477 9.482C193.992 9.062 193.749 8.51133 193.749 7.83V7.256C193.749 6.808 193.842 6.42067 194.029 6.094C194.225 5.76733 194.477 5.48733 194.785 5.254C195.102 5.02067 195.513 4.764 196.017 4.484L195.667 4.022C195.21 3.41533 194.981 2.86467 194.981 2.37V2.09C194.981 1.474 195.182 0.988666 195.583 0.634C195.984 0.27 196.521 0.0879999 197.193 0.0879999H197.753C198.36 0.0879999 198.845 0.265333 199.209 0.62C199.582 0.974666 199.769 1.44133 199.769 2.02V2.3C199.769 2.62667 199.704 2.91133 199.573 3.154C199.452 3.38733 199.246 3.616 198.957 3.84C198.668 4.064 198.248 4.32533 197.697 4.624L197.417 4.778L199.587 7.424C199.83 6.892 199.979 6.29933 200.035 5.646H200.959C200.903 6.63533 200.665 7.494 200.245 8.222L201.715 10H200.511ZM195.933 2.356C195.933 2.72 196.087 3.10733 196.395 3.518L196.857 4.134L197.151 3.966C197.608 3.70467 197.954 3.49 198.187 3.322C198.42 3.14467 198.584 2.98133 198.677 2.832C198.77 2.67333 198.817 2.496 198.817 2.3V2.02C198.817 1.70267 198.714 1.446 198.509 1.25C198.313 1.054 198.061 0.956 197.753 0.956H197.193C196.801 0.956 196.493 1.054 196.269 1.25C196.045 1.446 195.933 1.726 195.933 2.09V2.356ZM197.123 9.216C197.506 9.216 197.865 9.132 198.201 8.964C198.537 8.796 198.831 8.558 199.083 8.25L196.591 5.198C196.171 5.422 195.835 5.62267 195.583 5.8C195.331 5.97733 195.13 6.18267 194.981 6.416C194.832 6.64933 194.757 6.92933 194.757 7.256V7.83C194.757 8.24067 194.906 8.57667 195.205 8.838C195.513 9.09 195.91 9.216 196.395 9.216H197.123ZM206.73 3.014H207.71V3.966C207.906 3.64867 208.163 3.392 208.48 3.196C208.807 3 209.133 2.902 209.46 2.902H210.468C211.215 2.902 211.817 3.14 212.274 3.616C212.741 4.092 212.974 4.722 212.974 5.506V7.228C212.974 8.096 212.736 8.796 212.26 9.328C211.793 9.85067 211.173 10.112 210.398 10.112H209.39C209.101 10.112 208.797 10.0327 208.48 9.874C208.163 9.706 207.915 9.49133 207.738 9.23V12.786H206.73V3.014ZM210.37 9.216C210.855 9.216 211.243 9.034 211.532 8.67C211.821 8.306 211.966 7.82533 211.966 7.228V5.506C211.966 4.99267 211.826 4.582 211.546 4.274C211.266 3.95667 210.897 3.798 210.44 3.798H209.46C209.068 3.798 208.713 3.952 208.396 4.26C208.079 4.55867 207.859 4.946 207.738 5.422V7.522C207.803 8.01667 207.995 8.42267 208.312 8.74C208.629 9.05733 209.007 9.216 209.446 9.216H210.37ZM217.148 10.112C216.364 10.112 215.734 9.86933 215.258 9.384C214.782 8.89867 214.544 8.25933 214.544 7.466V5.548C214.544 4.75467 214.782 4.11533 215.258 3.63C215.743 3.14467 216.382 2.902 217.176 2.902H218.324C219.117 2.902 219.752 3.14467 220.228 3.63C220.713 4.11533 220.956 4.75467 220.956 5.548V7.466C220.956 8.25933 220.713 8.89867 220.228 9.384C219.742 9.86933 219.098 10.112 218.296 10.112H217.148ZM218.296 9.216C218.8 9.216 219.201 9.05733 219.5 8.74C219.798 8.41333 219.948 7.98867 219.948 7.466V5.548C219.948 5.02533 219.798 4.60533 219.5 4.288C219.201 3.96133 218.809 3.798 218.324 3.798H217.176C216.69 3.798 216.298 3.96133 216 4.288C215.701 4.60533 215.552 5.02533 215.552 5.548V7.466C215.552 7.998 215.696 8.42267 215.986 8.74C216.275 9.05733 216.662 9.216 217.148 9.216H218.296ZM231.254 3.014L229.742 9.188C229.667 9.468 229.565 9.67333 229.434 9.804C229.303 9.93467 229.126 10 228.902 10H228.426L226.676 4.722L224.87 10H224.394C224.179 10 224.002 9.93467 223.862 9.804C223.722 9.67333 223.619 9.468 223.554 9.188L222.028 3.014H223.092L224.394 8.88L226.284 3.21H226.648C226.919 3.21 227.101 3.35933 227.194 3.658L228.902 8.838L230.19 3.014H231.254ZM234.921 10.112C234.137 10.112 233.507 9.88333 233.031 9.426C232.555 8.95933 232.317 8.34333 232.317 7.578V5.576C232.317 4.77333 232.555 4.12933 233.031 3.644C233.507 3.14933 234.137 2.902 234.921 2.902H236.069C236.816 2.902 237.418 3.14 237.875 3.616C238.333 4.092 238.561 4.722 238.561 5.506V6.738H233.325V7.578C233.325 8.06333 233.47 8.46 233.759 8.768C234.058 9.06667 234.445 9.216 234.921 9.216H235.985C236.452 9.216 236.83 9.09 237.119 8.838C237.409 8.57667 237.553 8.23133 237.553 7.802H238.533C238.533 8.49267 238.3 9.05267 237.833 9.482C237.367 9.902 236.751 10.112 235.985 10.112H234.921ZM237.553 5.87V5.506C237.553 4.99267 237.418 4.582 237.147 4.274C236.877 3.95667 236.517 3.798 236.069 3.798H234.921C234.445 3.798 234.058 3.96133 233.759 4.288C233.47 4.61467 233.325 5.044 233.325 5.576V5.87H237.553ZM240.322 3.014H241.302V4.092C241.488 3.76533 241.768 3.49933 242.142 3.294C242.524 3.08867 242.921 2.986 243.332 2.986H243.948V3.896H243.332C242.734 3.896 242.249 4.08733 241.876 4.47C241.512 4.84333 241.33 5.34267 241.33 5.968V10H240.322V3.014ZM247.404 10.112C246.62 10.112 245.99 9.88333 245.514 9.426C245.038 8.95933 244.8 8.34333 244.8 7.578V5.576C244.8 4.77333 245.038 4.12933 245.514 3.644C245.99 3.14933 246.62 2.902 247.404 2.902H248.552C249.298 2.902 249.9 3.14 250.358 3.616C250.815 4.092 251.044 4.722 251.044 5.506V6.738H245.808V7.578C245.808 8.06333 245.952 8.46 246.242 8.768C246.54 9.06667 246.928 9.216 247.404 9.216H248.468C248.934 9.216 249.312 9.09 249.602 8.838C249.891 8.57667 250.036 8.23133 250.036 7.802H251.016C251.016 8.49267 250.782 9.05267 250.316 9.482C249.849 9.902 249.233 10.112 248.468 10.112H247.404ZM250.036 5.87V5.506C250.036 4.99267 249.9 4.582 249.63 4.274C249.359 3.95667 249 3.798 248.552 3.798H247.404C246.928 3.798 246.54 3.96133 246.242 4.288C245.952 4.61467 245.808 5.044 245.808 5.576V5.87H250.036ZM254.974 10.112C254.498 10.112 254.074 10 253.7 9.776C253.327 9.552 253.038 9.23933 252.832 8.838C252.627 8.43667 252.524 7.97 252.524 7.438V5.758C252.524 5.198 252.632 4.70333 252.846 4.274C253.061 3.83533 253.364 3.49933 253.756 3.266C254.148 3.02333 254.596 2.902 255.1 2.902H256.136C256.454 2.902 256.757 2.97667 257.046 3.126C257.345 3.27533 257.583 3.48067 257.76 3.742V0.199999H258.768V10H257.788V8.964C257.574 9.30933 257.294 9.58933 256.948 9.804C256.603 10.0093 256.267 10.112 255.94 10.112H254.974ZM255.912 9.216C256.211 9.216 256.5 9.12267 256.78 8.936C257.06 8.74 257.289 8.488 257.466 8.18C257.644 7.872 257.742 7.55467 257.76 7.228V5.464C257.695 4.96933 257.508 4.568 257.2 4.26C256.902 3.952 256.538 3.798 256.108 3.798H255.128C254.652 3.798 254.265 3.98 253.966 4.344C253.677 4.69867 253.532 5.17 253.532 5.758V7.438C253.532 7.96067 253.668 8.39 253.938 8.726C254.218 9.05267 254.573 9.216 255.002 9.216H255.912ZM267.293 10.112C266.985 10.112 266.658 10.0187 266.313 9.832C265.967 9.636 265.701 9.39333 265.515 9.104V10H264.535V0.199999H265.543V3.84C265.748 3.55067 266.009 3.322 266.327 3.154C266.653 2.986 266.989 2.902 267.335 2.902H268.329C268.805 2.902 269.225 3.014 269.589 3.238C269.962 3.45267 270.251 3.76067 270.457 4.162C270.671 4.554 270.779 5.00667 270.779 5.52V7.326C270.779 7.87667 270.671 8.362 270.457 8.782C270.251 9.202 269.957 9.52867 269.575 9.762C269.201 9.99533 268.767 10.112 268.273 10.112H267.293ZM268.245 9.216C268.693 9.216 269.057 9.04333 269.337 8.698C269.626 8.34333 269.771 7.886 269.771 7.326V5.52C269.771 5.00667 269.631 4.59133 269.351 4.274C269.08 3.95667 268.73 3.798 268.301 3.798H267.363C266.877 3.798 266.462 3.97533 266.117 4.33C265.771 4.68467 265.58 5.15133 265.543 5.73V7.438C265.561 7.76467 265.655 8.06333 265.823 8.334C265.991 8.60467 266.205 8.81933 266.467 8.978C266.728 9.13667 267.003 9.216 267.293 9.216H268.245ZM274.882 12.842C274.266 12.842 273.758 12.674 273.356 12.338C272.955 12.0113 272.731 11.5773 272.684 11.036H273.692C273.73 11.316 273.856 11.54 274.07 11.708C274.294 11.8853 274.565 11.974 274.882 11.974H275.974C276.46 11.974 276.833 11.8107 277.094 11.484C277.365 11.1667 277.5 10.7187 277.5 10.14V8.852C277.276 9.188 276.992 9.46333 276.646 9.678C276.31 9.89267 275.974 10 275.638 10H274.742C274.089 10 273.557 9.78067 273.146 9.342C272.745 8.90333 272.544 8.32933 272.544 7.62V3.014H273.552V7.648C273.552 8.08667 273.66 8.44133 273.874 8.712C274.098 8.97333 274.388 9.104 274.742 9.104H275.61C276.04 9.104 276.436 8.93133 276.8 8.586C277.164 8.24067 277.398 7.80667 277.5 7.284V3.014H278.508V10.14C278.508 10.9893 278.284 11.652 277.836 12.128C277.388 12.604 276.768 12.842 275.974 12.842H274.882ZM284.333 0.199999H290.773V1.124H285.369V4.708H290.255V5.632H285.369V10H284.333V0.199999ZM294.275 10C293.585 10 293.09 9.85533 292.791 9.566C292.493 9.26733 292.343 8.77733 292.343 8.096V0.199999H293.351V8.096C293.351 8.45067 293.421 8.70733 293.561 8.866C293.711 9.02467 293.949 9.104 294.275 9.104H294.751V10H294.275ZM298.413 10.112C297.629 10.112 296.999 9.86933 296.523 9.384C296.047 8.89867 295.809 8.25933 295.809 7.466V5.548C295.809 4.75467 296.047 4.11533 296.523 3.63C297.009 3.14467 297.648 2.902 298.441 2.902H299.589C300.383 2.902 301.017 3.14467 301.493 3.63C301.979 4.11533 302.221 4.75467 302.221 5.548V7.466C302.221 8.25933 301.979 8.89867 301.493 9.384C301.008 9.86933 300.364 10.112 299.561 10.112H298.413ZM299.561 9.216C300.065 9.216 300.467 9.05733 300.765 8.74C301.064 8.41333 301.213 7.98867 301.213 7.466V5.548C301.213 5.02533 301.064 4.60533 300.765 4.288C300.467 3.96133 300.075 3.798 299.589 3.798H298.441C297.956 3.798 297.564 3.96133 297.265 4.288C296.967 4.60533 296.817 5.02533 296.817 5.548V7.466C296.817 7.998 296.962 8.42267 297.251 8.74C297.541 9.05733 297.928 9.216 298.413 9.216H299.561ZM312.52 3.014L311.008 9.188C310.933 9.468 310.83 9.67333 310.7 9.804C310.569 9.93467 310.392 10 310.168 10H309.692L307.942 4.722L306.136 10H305.66C305.445 10 305.268 9.93467 305.128 9.804C304.988 9.67333 304.885 9.468 304.82 9.188L303.294 3.014H304.358L305.66 8.88L307.55 3.21H307.914C308.184 3.21 308.366 3.35933 308.46 3.658L310.168 8.838L311.456 3.014H312.52ZM316.785 10.112C316.477 10.112 316.15 10.0187 315.805 9.832C315.46 9.636 315.194 9.39333 315.007 9.104V10H314.027V0.199999H315.035V3.84C315.24 3.55067 315.502 3.322 315.819 3.154C316.146 2.986 316.482 2.902 316.827 2.902H317.821C318.297 2.902 318.717 3.014 319.081 3.238C319.454 3.45267 319.744 3.76067 319.949 4.162C320.164 4.554 320.271 5.00667 320.271 5.52V7.326C320.271 7.87667 320.164 8.362 319.949 8.782C319.744 9.202 319.45 9.52867 319.067 9.762C318.694 9.99533 318.26 10.112 317.765 10.112H316.785ZM317.737 9.216C318.185 9.216 318.549 9.04333 318.829 8.698C319.118 8.34333 319.263 7.886 319.263 7.326V5.52C319.263 5.00667 319.123 4.59133 318.843 4.274C318.572 3.95667 318.222 3.798 317.793 3.798H316.855C316.37 3.798 315.954 3.97533 315.609 4.33C315.264 4.68467 315.072 5.15133 315.035 5.73V7.438C315.054 7.76467 315.147 8.06333 315.315 8.334C315.483 8.60467 315.698 8.81933 315.959 8.978C316.22 9.13667 316.496 9.216 316.785 9.216H317.737ZM324.137 10.112C323.455 10.112 322.909 9.93467 322.499 9.58C322.097 9.22533 321.897 8.74933 321.897 8.152V7.704C321.897 7.116 322.107 6.64467 322.527 6.29C322.947 5.93533 323.502 5.758 324.193 5.758H325.089C325.397 5.758 325.714 5.80467 326.041 5.898C326.367 5.99133 326.647 6.11733 326.881 6.276V5.114C326.881 4.722 326.759 4.40467 326.517 4.162C326.274 3.91 325.952 3.784 325.551 3.784H324.431C324.029 3.784 323.707 3.87733 323.465 4.064C323.222 4.25067 323.101 4.498 323.101 4.806H322.093C322.093 4.23667 322.307 3.77933 322.737 3.434C323.166 3.07933 323.731 2.902 324.431 2.902H325.551C326.241 2.902 326.797 3.10733 327.217 3.518C327.646 3.91933 327.861 4.45133 327.861 5.114V10H326.909V9.02C326.694 9.356 326.409 9.622 326.055 9.818C325.709 10.014 325.35 10.112 324.977 10.112H324.137ZM325.005 9.23C325.443 9.23 325.835 9.09467 326.181 8.824C326.526 8.55333 326.759 8.194 326.881 7.746V7.228C326.694 7.05067 326.433 6.91067 326.097 6.808C325.77 6.696 325.434 6.64 325.089 6.64H324.193C323.81 6.64 323.497 6.738 323.255 6.934C323.021 7.13 322.905 7.38667 322.905 7.704V8.152C322.905 8.47867 323.017 8.74 323.241 8.936C323.465 9.132 323.763 9.23 324.137 9.23H325.005ZM331.888 10.112C331.179 10.112 330.609 9.91133 330.18 9.51C329.751 9.10867 329.536 8.58133 329.536 7.928H330.516C330.516 8.32 330.642 8.63733 330.894 8.88C331.146 9.12267 331.477 9.244 331.888 9.244H333.106C333.507 9.244 333.834 9.16467 334.086 9.006C334.338 8.838 334.464 8.62333 334.464 8.362V7.886C334.464 7.70867 334.394 7.55467 334.254 7.424C334.114 7.284 333.932 7.19067 333.708 7.144L331.286 6.724C330.801 6.64 330.409 6.458 330.11 6.178C329.821 5.88867 329.676 5.55267 329.676 5.17V4.708C329.676 4.16667 329.881 3.73267 330.292 3.406C330.703 3.07 331.244 2.902 331.916 2.902H333.12C333.773 2.902 334.301 3.08867 334.702 3.462C335.103 3.826 335.304 4.31133 335.304 4.918H334.324C334.315 4.57267 334.198 4.29733 333.974 4.092C333.759 3.87733 333.475 3.77 333.12 3.77H331.916C331.543 3.77 331.244 3.85867 331.02 4.036C330.796 4.204 330.684 4.428 330.684 4.708V5.114C330.684 5.29133 330.759 5.45 330.908 5.59C331.067 5.73 331.267 5.81867 331.51 5.856L333.918 6.276C334.385 6.36 334.758 6.542 335.038 6.822C335.327 7.102 335.472 7.438 335.472 7.83V8.39C335.472 8.90333 335.253 9.31867 334.814 9.636C334.385 9.95333 333.815 10.112 333.106 10.112H331.888ZM339.497 10.112C338.713 10.112 338.083 9.88333 337.607 9.426C337.131 8.95933 336.893 8.34333 336.893 7.578V5.576C336.893 4.77333 337.131 4.12933 337.607 3.644C338.083 3.14933 338.713 2.902 339.497 2.902H340.645C341.392 2.902 341.994 3.14 342.451 3.616C342.909 4.092 343.137 4.722 343.137 5.506V6.738H337.901V7.578C337.901 8.06333 338.046 8.46 338.335 8.768C338.634 9.06667 339.021 9.216 339.497 9.216H340.561C341.028 9.216 341.406 9.09 341.695 8.838C341.985 8.57667 342.129 8.23133 342.129 7.802H343.109C343.109 8.49267 342.876 9.05267 342.409 9.482C341.943 9.902 341.327 10.112 340.561 10.112H339.497ZM342.129 5.87V5.506C342.129 4.99267 341.994 4.582 341.723 4.274C341.453 3.95667 341.093 3.798 340.645 3.798H339.497C339.021 3.798 338.634 3.96133 338.335 4.288C338.046 4.61467 337.901 5.044 337.901 5.576V5.87H342.129Z" fill="#F2F1EF"/>
</svg>
